<svg version="1.0" xmlns="http://www.w3.org/2000/svg" width="1764" height="1764" viewBox="0 0 1323 1323"><path d="M628.9 18.3c-.2.3-5.3.7-11.4 1.1-64.1 3.8-145.9 23.5-204 49.1-60.8 26.8-108.5 55.9-156 95-11.9 9.8-14.2 11.8-26 22.5-14.7 13.3-36.7 36.1-55.4 57.5-19.3 21.9-47 60.7-64.4 90-27.7 46.9-49.1 95.9-64.2 147-4 13.5-10.7 39.1-11.9 45.5-.2 1.4-1.4 7-2.5 12.5-3.7 17.8-8 46.8-9.7 65.5-.3 3.6-.7 8.1-.9 10-2.3 19.7-2.3 86.8-.1 105.5.2 1.6.7 6.6 1.1 11 .7 8.9.6 8 3.5 29.3 19 139.7 86.4 273.2 188.4 373.1 18.4 18.1 20.3 19.7 37.1 33.8 19.5 16.3 17.1 14.4 32 25.4 71.9 53 153.4 90.2 239.4 109.4 23.6 5.2 54.6 10.3 73.6 12 3.9.3 8.4.8 10 1 21.2 2.5 97 2.5 110.3.1.9-.2 5.1-.7 9.2-1.1 4.1-.3 8.6-.8 10-1 1.4-.2 5-.7 8-1 25.2-2.9 66.2-11.5 95.8-20.1 21.6-6.2 56.6-19 76.7-27.9 3.3-1.5 8-3.6 10.5-4.7 5.5-2.5 32.6-16 37.4-18.7 2-1.1 6.6-3.7 10.3-5.7 3.7-2 13.3-7.8 21.3-12.7 89.4-55.5 162.3-129.9 216.5-220.8 48.1-80.5 79-174.6 88-267.9.4-3.6.8-8.1 1.1-10 2.5-24.1 2.5-86.7-.1-111.7-.2-2.1-.9-8.8-1.5-14.8-.9-9.3-3.2-25.6-5.6-40.5-1.5-9.5-6.9-34.9-10-47.4-16.9-67.6-42.7-128-80.5-189.2-10.3-16.7-35.6-52.1-44.4-62.3-1.3-1.4-5.1-6-8.5-10.1-15.4-18.6-46.6-50.8-64.4-66.5-4.4-3.9-8.6-7.7-9.5-8.5-3.9-3.6-27.6-22.3-38.1-30.1C959.5 82.2 858.6 40 761.5 25.4c-5.5-.8-11.1-1.6-12.5-1.9-1.4-.2-5.2-.7-8.5-1.1-3.3-.3-6.7-.8-7.5-.9-.9-.2-5.8-.6-11-1s-10.8-.9-12.5-1.2c-3.7-.6-79.9-1.5-80.6-1zm61.6 16.1c9.4.4 18.1.8 19.5 1 1.4.3 6.5.7 11.4 1.1 5 .4 9.7.8 10.5 1 .9.2 4.5.6 8.1 1 3.6.4 7.2.9 8.2 1 .9.2 3.8.7 6.5 1 13 1.8 34.5 5.8 46.3 8.7 16.2 3.9 41.4 10.9 42.5 11.8.7.6 1.4.8 1.7.5.5-.5 36.6 11.6 39 13.1.7.5 2 .9 2.8 1.1.8.1 2.3.6 3.5 1.2 1.1.6 7.5 3.3 14.3 6.1 6.8 2.8 13.1 5.5 14 5.9.9.5 9.7 4.9 19.5 9.8 25.5 12.6 25.2 12.4 25.5 13.4.2.5.9.9 1.5.9 2 0 38.9 22.5 39.5 24.1.2.5.8.9 1.4.9.5 0 3.9 2.1 7.6 4.7 9.3 6.5 20.6 14.6 21.2 15.3.3.3 4.3 3.4 9 6.9 13 9.9 16.1 12.3 20.5 16.2 2.2 2 7.2 6.4 11 9.8 3.9 3.4 6.9 6.7 6.7 7.2-.1.6.1.8.6.5 1-.6 26.2 24 39.9 38.9 84.1 92 139.8 208.3 158.7 331.5 1.4 9.1 3 21.4 3.6 27.5.6 6 1.3 12.6 1.5 14.5 2.1 17.3 2.7 71.9 1.2 98-.5 8-1 14.7-1.2 15-.1.3-.6 4.2-.9 8.7-.4 4.5-.8 9-1 10-.2 1-.7 4.5-1 7.8-3.7 32.8-14.4 79.5-27.1 118.2-9.2 27.9-27.4 71.9-30.8 74.4-.5.3-.8.9-.7 1.3.4 1.4-6.2 14.6-7.2 14.6-.6 0-.9.3-.5.6.8.8-12.8 26.8-14.9 28.2-.5.4-1 1.3-1.2 2-.3 1.7-5.2 9.5-6.4 10.3-.5.3-.9 1-.7 1.4.8 2.8-48.3 71.5-51.3 71.5-.4 0-.8.5-.8 1.1 0 .6-.6 1.6-1.2 2.3-.7.7-3.5 3.9-6.3 7.2-9.8 11.5-13.2 15.1-31 32.9-16.5 16.5-28.4 27.7-37.5 35.1-1.9 1.6-3.7 3.1-4 3.4-.3.4-4.1 3.6-8.5 7.1-25.1 20.5-55.9 41.5-85 58-17.6 9.9-49.5 25.8-58.5 29.1-3 1.2-6 2.5-6.7 3-.7.5-1.6.7-2.2.4-.5-.3-1.1-.2-1.3.3-.6 1.7-47.8 19.3-54.5 20.4-1 .1-2.2.5-2.8.9-1.1.6-14.7 4.5-18 5.1-1.1.2-3.9.9-6.3 1.6-2.3.6-4.6.9-5.1.6-.5-.3-1.1 0-1.3.5-.2.6-2 1.2-4 1.3-2 .1-3.4.5-3.2.8.2.4-1.8 1-4.4 1.5-2.6.4-5.4.9-6.2 1.1-.8.2-2.6.5-4 .7-1.4.3-7.9 1.6-14.5 2.9-6.6 1.4-14.5 2.8-17.5 3.2-3 .3-6.2.8-7 1-.8.2-3.7.7-6.5 1-2.7.3-6 .7-7.1.9-1.2.2-6.1.7-11 1.1-4.9.4-9.8.9-10.8 1.1-13.1 2.5-88.7 2.4-107.3-.1-1.7-.2-6.2-.6-10-1-3.7-.3-7.9-.7-9.3-1-1.4-.2-5-.7-8-1-22-2.5-60.4-10.3-86-17.6-55.1-15.7-105.2-37.6-156-68.2-5.4-3.2-29.4-19-30-19.6-.3-.3-3.8-2.8-7.8-5.6-4-2.7-7.6-5.5-8-6.1-.4-.7-1.1-1.2-1.5-1.2-1.9 0-35.8-27.6-48.2-39.3-2.2-2.1-5.6-5.2-7.5-7-1.9-1.8-3.4-3.6-3.2-4.1.1-.5-.1-.7-.6-.4-.9.6-32.7-31.7-32.9-33.4 0-.3-2.3-2.9-5.1-5.7-6.1-6.3-26.5-31.5-35-43.3-3.4-4.7-6.5-9-7-9.6-.5-.5-1.5-2.1-2.2-3.5-.7-1.3-1.6-2.6-2-2.9-1.1-.8-11-16.1-11-17 0-.5-.4-1-.8-1.2-.5-.1-3.4-4.6-6.6-9.8-3.2-5.2-6.2-10.2-6.7-11-10.8-17.3-41.9-82.2-41.9-87.4 0-.6-.4-1.6-.9-2.2-.4-.5-1.8-3.6-2.9-6.9-1.1-3.3-3.5-9.8-5.2-14.5-4.1-11.1-12.2-37.8-15.9-52.7-3-11.9-3.4-13.6-4.9-20.8-1-4.9-1-5-1.7-7.8-.3-1.2-.7-3.3-.9-4.7-.3-1.4-1.2-5.9-2-10.1-1.6-8.3-5.2-32-6.1-40.9-.3-3-.7-7.1-1-9-.2-1.9-.7-7.3-1-12-.3-4.7-.8-10.3-1.1-12.4-.9-6.6-1.1-59.3-.3-73.6 1.2-21.3 4.9-57.8 6.4-63 .2-.8.7-3.5 1-6 1.5-11 6.8-37.3 10.6-52.5 24.8-98.8 72-188.8 139.4-266 23-26.3 60.5-61.8 84.6-80 1.5-1.1 6.9-5.2 12-9.1 14.9-11.3 37-26.3 37.7-25.6.1.1 1-.5 2-1.4 3.2-2.8 10.6-7.3 11.4-6.8.4.3.8.1.8-.4 0-1.8 37.5-22.3 59-32.2 4.1-1.9 7.7-3.5 8-3.5.3-.1 2.1-.9 4-1.7 28.4-13 71.9-27.7 104.5-35.3 16.8-3.9 40.4-8.4 51.6-10 2.5-.3 5.7-.8 7-1 2.6-.4 26.1-3.1 34.9-3.9 3-.3 13.8-.9 24-1.2 10.2-.4 18.6-.7 18.7-.8.3-.2 16.5.2 35.8.8z"/><path d="M669.6 51.1c-.5 1.9-6.3 18.1-8.6 24.4-1 2.7-3.5 9.6-5.6 15.3l-3.7 10.2-28.1-.1c-15.5-.1-28.7-.1-29.5 0-1.9.1.1 1.6 21.9 16.1 10.2 6.8 18.7 12.7 18.8 13.2.2.4.8.8 1.4.8.5 0 1.6.6 2.3 1.4 1.5 1.4 1.1 3.2-4 16.1-8.4 21.6-14.2 39.3-11.7 36 .4-.6 1.9-1.6 3.5-2.4 1.5-.8 2.7-1.8 2.7-2.3 0-.4.4-.8.9-.8 1 0 11.2-6 12.1-7.1.8-.9 25.7-16.9 27.5-17.5 1.5-.6 10.5 4.4 10.5 5.8 0 .5.4.8 1 .8 1.2 0 22.4 14.1 22.8 15.2.2.4.8.8 1.4.8.5 0 3.5 1.8 6.7 4 6.3 4.4 7.7 4.9 6.6 2.2-1.3-3.3-17.5-49.2-17.5-49.7 0-.1 2.4-1.7 5.3-3.5 2.8-1.9 13.8-9 24.2-16l19-12.5-30.1-.3c-27.6-.2-30.2-.4-30.7-2-2-6.8-17-47.9-17.7-48.6-.6-.6-1.1-.4-1.4.5zm-203.1 55.6c.5 25.6.4 27.3-1.3 28.2-1 .5-12.1 4.8-24.7 9.5-25.2 9.4-27.9 10.6-26.8 11.7.7.6 31.4 8.1 37.8 9.2 6.2 1.1 14.1 3.1 15 3.9 1 .9 1.3 8.1 1.5 38.1.1 9.9.5 16.5 1.1 16.2.5-.4.9-1 .9-1.5 0-.4 1.3-2.3 2.9-4.2 1.6-1.8 8.6-11.2 15.6-20.8 7-9.6 13.2-18 13.8-18.7.9-.9 2.6-.9 7.2.3 3.3.8 10.3 2.3 15.5 3.5 5.2 1.2 13.6 3 18.5 4.1 5 1.1 10.7 2.4 12.8 2.8l3.7.7-4.7-5.6c-2.6-3.1-7.6-9-11.1-13.1-20.3-23.7-19.7-22.9-18.2-25.4.7-1.1 7.8-11 15.7-21.9 14.8-20.3 16.8-23.5 14.2-22.5-.8.3-13.2 4.9-27.6 10.3l-26.2 9.7-2.5-2.8c-1.3-1.6-3.4-4-4.6-5.4-1.1-1.4-2.9-3.4-3.8-4.5C480.8 96.1 472 85.9 469.3 83l-3.3-3.4.5 27.1zm404-18.9c.2.3-.8 1.9-2.3 3.6-1.5 1.8-4.3 5.2-6.2 7.6-1.9 2.4-4.5 5.4-5.7 6.6-1.3 1.3-2.3 2.6-2.3 2.9 0 .4-.6 1.2-1.2 1.9-.7.7-2.9 3.2-5 5.7-11.1 13.5-10 12.5-13.3 11.6-1.6-.5-4.7-1.8-6.8-2.8-2.2-1.1-3.5-1.3-3.1-.6.5.9.4.9-.7-.1-.7-.6-2.1-1.2-3.1-1.2s-1.8-.5-1.8-1c0-.6-1.4-1-3.1-1-2 0-2.8-.4-2.3-1.2.4-.6.3-.8-.2-.5-.6.3-2.9-.3-5.2-1.3-2.3-1.1-4.2-1.7-4.2-1.5 0 .2-2.1-.5-4.6-1.5-2.5-1.1-5.4-2-6.5-2-1 0-1.9-.5-1.9-1 0-.6-1-1-2.3-1-1.3 0-2.8-.5-3.4-1.1-.6-.6-1.8-.9-2.8-.7-1.5.3-1.5.5.2 2.3 1 1.1 2.9 3.6 4.2 5.5 1.3 1.9 3.6 4.7 4.9 6.2 1.4 1.6 2.2 2.8 1.7 2.8-.4 0 .2.9 1.5 2s1.9 2 1.5 2c-.4 0 .1.8 1.1 1.8 1 .9 3 3.3 4.4 5.2 1.3 1.9 2.8 3.9 3.2 4.5 3.2 3.9 9.8 13.1 9.8 13.8 0 .5-.6 1.4-1.2 2.1-.7.7-2.8 3.1-4.6 5.4-1.9 2.3-4.2 5.1-5.3 6.4-1 1.3-2.8 3.4-3.9 4.8-8 9.9-13.3 16.3-16.7 20.1-3.1 3.4-3.1 3.6-1 3.4 1.2 0 3.8-.6 5.7-1.3 1.9-.6 4.6-1.3 6-1.5 1.4-.2 3.2-.6 4-.9.8-.3 4.2-1.1 7.5-1.8 3.3-.6 7-1.6 8.3-2.1 1.3-.5 3.4-.9 4.7-.9 1.4 0 2.5-.5 2.5-1.1 0-.5.4-.8.8-.5.5.3 3.3-.1 6.3-.9 9.2-2.5 8.7-2.8 19.9 12.2 5.7 7.6 10.6 14 10.9 14.3.4.3 2.4 3.1 4.5 6.2 3.6 5.3 8.4 10.7 8.7 9.7.1-.2.2-11 .3-23.9.1-12.9.5-24 .9-24.7.4-.6.1-1.3-.5-1.6-2.1-.6 1.1-3.7 3.8-3.7 1.4 0 3.2-.4 4.2-.9.9-.5 4.4-1.5 7.7-2.1 3.3-.7 7-1.6 8.3-2.1 1.3-.5 3.4-.9 4.7-.9 1.3 0 2.7-.5 3.1-1.1.4-.8.9-.7 1.5.2.6 1 .9 1.1.9.1 0-.7 1.3-1.2 2.9-1.2 1.7 0 3.2-.4 3.5-.8.2-.4 1.9-.9 3.7-1 1.8-.2 3.6-.6 3.9-1 .3-.4 2.1-.9 4-1.1 1.9-.1 3.6-.4 3.8-.6.6-.5-6.1-3.5-7.9-3.5-1 0-2.1-.5-2.4-1-.3-.6-1.7-1-3.1-1-1.3 0-2.4-.3-2.4-.8 0-.8-7.1-3.2-9.5-3.2-.8 0-1.5-.5-1.5-1 0-.6-.7-1-1.5-1-2.4 0-9.5-2.4-9.5-3.2 0-.5-1.1-.8-2.4-.8-1.4 0-2.8-.5-3.1-1-.3-.6-1.7-1-3.1-1-1.3 0-2.4-.5-2.4-1 0-.6-1-1-2.2-1-3-.1-6.5-2.6-4.6-3.3.7-.3.9-.6.3-.6-.6-.1-.9-9.3-.8-25.9.1-21.8-.1-25.9-1.3-25.9-.8 0-1.2.2-.9.5zm-501 88.7c-5 3.6-10.1 7.3-11.5 8.3-1.4.9-7.5 5.4-13.6 9.9l-11.1 8.1-6.9-4.7c-3.8-2.6-12.7-8.7-19.8-13.7-14.3-9.8-17.5-11.8-18.3-11.1-.2.3 2.7 11.4 6.6 24.6 3.9 13.3 7.1 24.9 7.1 25.9s-3.7 4.3-9.2 8.2c-5 3.6-11 7.8-13.3 9.5-18.4 13.1-23.4 16.9-22.9 17.6.3.5 4.7.7 9.7.5 5.1-.3 13.8-.6 19.5-.7 6.8-.1 10.2-.5 10.2-1.3 0-.7.3-.8.8-.1.4.6 1.8.9 3.2.8 5.7-.7 11.2-.5 11.9.3.5.5 1.9 4.5 3.1 8.9 1.2 4.4 2.6 9.1 3.1 10.5.4 1.4 2.7 9 5 17s4.3 14.7 4.5 14.9c.2.2.9-1 1.5-2.7.6-1.8 1.5-3.2 2.1-3.2.5 0 .7-.4.4-.8-.4-.7 6.1-19.5 9.3-26.7.5-1.1 1.4-3.6 2.1-5.5.7-1.9 1.6-4.4 2-5.5.4-1.1 1.3-3.4 2-5.2 1.3-3.5 2.6-4.3 6.4-3.9 1.4.2 2.6 0 2.6-.3s1.1-.6 2.5-.6 2.5.4 2.5.9.6.4 1.3-.1c.6-.5 5.5-1.1 10.7-1.2 20.7-.5 32.3-1 32.7-1.4.4-.5-5.4-4.8-21.2-15.6-6-4.1-11.1-7.9-11.3-8.3-.2-.4-.8-.8-1.3-.8-1 0-6.3-3.5-8.8-5.9-1.2-1.1-1.2-1.8-.2-4.5.7-1.7 1.4-3.6 1.5-4.1.2-.6.6-1.7.9-2.5 1.3-3.1 6.9-18.5 7-19.5.1-.6.5-1.2.8-1.5.3-.3 1.9-4.3 3.6-9 1.7-4.7 3.4-9.3 3.8-10.3 1.3-3.2-1.8-1.8-11 4.8zm586.5 3.3c0 .5 1.3 4.6 2.9 8.9 10.6 28.3 16.1 43.5 16.1 44.8 0 .8-.6 1.5-1.4 1.5-.8 0-1.6.4-1.8.9-.1.4-9.6 7-21.1 14.6-11.4 7.6-20.5 14-20.4 14.2.4.3 6 .7 28.2 1.8 22 1 29 1.6 29.7 2.3.4.4 1.3 2.5 2.1 4.7.7 2.2 5.1 14.3 9.8 26.8l8.4 22.9 1.2-3.9c11.2-37.4 14.4-47.6 14.9-48.4.3-.6 4.7-.8 10.7-.5 5.6.3 15.6.8 22.2 1.2 6.6.3 13.6.7 15.5.9 1.9.2 4.8.2 6.3-.1 2.6-.5 2.4-.9-5.7-6.7-32.9-24.1-38.5-28.3-38.6-29.5 0-.7 3-11.1 6.6-23 7.8-25.6 8.5-28.2 7.3-28.2-.4 0-10.5 6.6-22.4 14.6-12.2 8.2-22.2 14.3-23 14-.8-.3-6.7-4.4-13.2-9.2-6.5-4.8-16.1-11.9-21.3-15.7-5.2-3.9-10.3-7.7-11.2-8.5-1-.8-1.8-1-1.8-.4zm-325.5 21.4c-111.4 6.6-222.3 56.2-301.5 135-26.5 26.3-41.7 44.6-61.5 74.3-14 21-21.5 34.1-32.1 56-25.5 52.8-39.6 104.9-44.9 166.5-1.9 21.2-1.1 63.2 1.5 83.5.5 4.4 1.2 10.5 1.6 13.5.3 3 1.7 11.6 3.1 19 1.4 7.4 2.6 14.6 2.7 16 .2 1.4.8 4.2 1.5 6.3.7 2.1 1 4.4.7 5.2-.3.8-.2 1.5.2 1.5.5 0 1.6 3.3 2.7 7.2 5.5 21.6 14.5 47 25.7 72 3.8 8.7 6.6 16.3 6.2 16.9-.4.8-.3.9.5.5 1.2-.8 3.2 3.3 2.3 4.9-.3.5-.2.7.3.3.4-.4 1.8 1 2.9 3.2 1.2 2.2 5.3 9.5 9.3 16.2 68.1 116.5 182.4 198.5 314.2 225.4 18.5 3.8 18.7 3.8 26.4 4.9 2.7.4 5.6.8 6.6 1 1.5.3 9.4 1.1 19.1 2.1 19 1.8 50.5 2.3 72.5 1.1 47.2-2.6 94.9-12.6 139-29.2 15.5-5.9 30.3-12.2 32.3-13.8.8-.6 2.3-1.3 3.5-1.4 2.5-.4 26.2-12.7 39.2-20.3 10.8-6.4 32-20.3 35.5-23.4 1.4-1.2 4.3-3.4 6.5-4.8 8.5-5.4 27.6-21.3 41.9-34.8 27.5-26.1 46-47.8 71-83.7 6-8.6 7.9-11.7 15.7-26.1 1.8-3.1 3.5-6.2 3.9-6.7.5-.6 3.9-7.3 7.8-15 32.9-65.7 48.9-133.9 48.9-207.5 0-141-64-273.5-175.1-362.6-68.3-54.8-155.8-91.6-239.6-100.9-3-.3-6.6-.8-8-1-10.8-1.8-60.4-2.6-82.5-1.3zm67.5 27.2c5.8.4 11.2.9 12 1.2.8.3 4.9.8 9 1.1 4.1.3 8.2.9 9 1.2.8.4 3.5.9 5.9 1 2.4.2 5.4.5 6.5.8 1.2.3 3.9.8 6.1 1.3 17.4 3.4 21.2 4.2 22.7 5.1 1 .5 3.1.9 4.7.9 1.7 0 3.3.4 3.6 1 .3.5 1.7 1 3 1s3.4.4 4.7.9c1.3.5 4.3 1.4 6.8 2.1 2.5.7 5.3 1.6 6.2 2.1 1 .5 2.7.9 3.7.9 1.1 0 2.3.4 2.6 1 .3.5 1.6 1 2.9 1 1.2 0 2.6.4 3.2.8.5.4 2.7 1.4 4.9 2.1 4.2 1.3 7.8 2.7 10.7 4.2 1 .5 2.4.9 3.1.9.8 0 2.7.6 4.3 1.4 1.6.8 5.2 2.4 7.9 3.6 2.8 1.2 8.2 3.7 12 5.6 3.9 1.9 7.5 3.4 8.2 3.4.6 0 1.3.3 1.5.7.2.5 3.7 2.5 7.8 4.6 7.3 3.7 11.5 6 20.3 11.2 2.3 1.4 5 2.8 6 3.2.9.3 1.7.9 1.7 1.4 0 .5.7.9 1.5.9s1.5.4 1.5 1c0 .5.4 1 .9 1 1.3 0 19.5 12.1 19.9 13.2.2.4 1 .8 1.8.8s1.4.4 1.4.8 1.2 1.5 2.8 2.4c1.5.9 3.7 2.5 4.8 3.5 1.2 1 3.6 2.9 5.4 4.3 3.8 2.8 9.2 7.2 10 8 .3.3 3.4 3 7 6 22.9 19.3 47 45.1 65.8 70.5 4.5 6 8.5 11.5 8.9 12 2.8 3.6 12.7 19.2 18.7 29.3 4.7 7.9 19.3 36.5 23 45.2 1.5 3.6 3.1 7.4 3.6 8.5 2.7 6.1 10.4 27.7 13.5 37.7 13.6 44.9 19 81.9 18.9 129.3-.1 48.1-5.8 85.1-20.4 132-7.1 22.7-25.3 64.2-35.8 81.5-3.6 5.9-6.1 9.9-9.8 15.5-2.1 3.2-4.8 7.5-6 9.5-1.1 1.9-2.9 3.7-4 3.9-1.6.3-1.7.1-.5-1.3 1.2-1.4 1.2-1.6-.3-1-1.2.5-1.9 0-2.3-1.5-.3-1.1-1-2.1-1.5-2.1s-.6-.5-.3-1c.3-.6.2-1-.3-1-1.2 0-4.5-5-4.5-6.7 0-.7-.4-1-.7-.8-.4.3-1.8-1.6-3.1-4-1.3-2.5-2.6-4.5-2.9-4.5-.3 0-1.4-1.7-2.5-3.8-1.1-2-2.6-4.3-3.2-5-.7-.7-1.3-1.9-1.3-2.7 0-.7-.7-1.6-1.6-1.9-.8-.3-1.3-1-1-1.5.3-.5-.1-1.2-1-1.5-.8-.3-1.3-1-1-1.5.4-.5.3-1.1-.2-1.3-1.7-.7-5.3-6.9-4.6-7.9.4-.7.3-.9-.3-.6-1.4.9-4.6-4-3.7-5.5.4-.7.3-.8-.4-.4-1.2.7-3.5-2.7-2.5-3.8.3-.3.2-.6-.4-.6-.9 0-8.9-11.4-10.2-14.5-.2-.6-.7-1.2-1-1.5-1.4-1.1-6.4-9.5-6.4-10.7 0-.7-.5-.9-1-.6-.6.4-.8 0-.4-1 .3-.9.2-1.6-.2-1.4-1 .2-6.1-6.8-6.1-8.3 0-.4-.4-1-.9-1.2-.5-.2-1.1-.9-1.3-1.7-.2-.7-1.3-2.5-2.5-3.9-1.3-1.3-2-2.8-1.8-3.2.3-.4-.2-1.1-1.1-1.4-.8-.3-1.3-1-1-1.5.3-.5-.1-1.2-1-1.5-.8-.3-1.3-1-1-1.5.3-.5-.1-1.2-1-1.5-.8-.3-1.2-1-.9-1.6.3-.5.3-1-.2-1-1.5 0-8.5-11.9-7.7-13.1.4-.8.3-.9-.4-.5-1.5.9-6.6-6.9-5.6-8.5.4-.7.3-1-.3-.6-.8.5-6.5-8.1-6.8-10.3-.1-.3-1.1-2.1-2.3-4-1.2-1.9-2-4.1-1.7-4.8.3-.7.1-1.1-.4-.8-.5.3-1.8-1.6-3.1-4.2-1.2-2.6-3.4-7-5-9.7-1.6-2.8-2.7-5.7-2.4-6.5.3-.8.2-1.1-.2-.7-.4.4-1.2-.3-1.9-1.6-.7-1.2-2.1-3.9-3.3-5.9-2.2-3.8-2.5-7.8-.7-9 .6-.5.5-.8-.3-.8-.9 0-1-.5-.2-1.9.7-1.3.7-2.2 0-2.6-.5-.3-1-1.1-1-1.6 0-.6.6-.7 1.3-.3.9.6.9.5 0-.7-.7-.8-1.2-2.4-1.2-3.4 0-1.1-.1-3.3-.4-4.9-.2-1.7.5-4.8 2-7.8 4.2-8.8 5.6-16.3 4.9-26.2-.9-11.5-1.9-14-10.3-26.8-3.9-5.9-8.3-13.1-9.8-16.1-2.6-5.5-2.6-5.5-.8-8.9 1.4-2.5 1.7-5.2 1.6-11.6-.1-7 .1-8.2 1.5-8.4.9 0 2.2-.2 2.9-.2.6-.1 1.5-.5 1.9-.9.4-.4 1.6-.7 2.6-.7 2.8 0 10.4-3.9 13.3-6.7 1.4-1.4 4-5.3 5.9-8.7 1.8-3.4 4.7-8.6 6.3-11.6 6.3-11.3 8.3-29.1 4.7-40.7-1-3.2-2-6-2.3-6.3-.3-.3-1.3-1.8-2.1-3.5-2.3-4.4-12.1-13.7-18.1-16.9-16-8.6-40.8-9.8-54.7-2.7-4 2-15.2 12.5-15.2 14.1 0 .4-1.2 2-2.6 3.6-3.1 3.5-6.4 9.7-6.4 12 0 .9-1.3 3.8-2.8 6.3-1.5 2.5-3.4 6.1-4.1 7.8-2.5 6.2-8.5 3.8-20.4-8-3.2-3.1-5.5-5.7-5-5.8.4 0-.1-.4-1.2-.9-1.9-.8-1.9-.9-.1-.9 1.7-.1 1.7-.3-.5-2.4-2.5-2.4-3.8-4.2-6.5-9.2-.9-1.7-2.5-3.7-3.5-4.6-1-.9-1.5-2-1.1-2.4.4-.5-.2-.5-1.2-.1-1.5.5-1.7.4-.8-.7.9-1 .7-1.6-.8-2.7-1-.7-1.7-1.7-1.4-2.2.3-.4 0-.8-.6-.8s-.8-.5-.4-1.2c.5-.7.2-.9-.9-.5s-1.4.2-1-.9c.3-.7 0-1.4-.7-1.4-.6 0-.8-.5-.5-1 .3-.6.1-1-.5-1s-.8-.5-.5-1c.3-.6-.1-1-1-1s-1.4-.4-1.1-.9c.3-.5-.7-2.8-2.3-5.2-1.6-2.4-2.7-4.7-2.5-5.1.3-.4-.2-.8-1-.8-.9 0-1.6-.3-1.5-.8.2-1.6-1.4-5.2-2.4-5.2-.6 0-.7-.3-.4-.6.4-.4-.3-1.5-1.5-2.5-1.1-1.1-1.6-1.9-.9-1.9.9 0 .8-.5-.3-1.5-.8-.8-2.1-1.5-2.8-1.5-1 0-.9-.3.2-1s1.1-1 .2-1c-.7 0-1.1-.4-.8-.9.3-.5-.1-1.2-1-1.5-.9-.4-1.4-1.3-1-2.1.3-.9 0-1.5-1-1.5-.8 0-1.3-.4-.9-.9.3-.5-.2-1.7-1.1-2.5-.8-.9-1.3-1.6-.9-1.6s-.1-.7-.9-1.6c-.9-.8-1.4-2-1.1-2.5.4-.5-.2-.6-1.1-.2-1.2.4-1.5.3-1-.5.7-1.2-.8-4.7-3.1-7-.7-.8-1.1-1.8-.8-2.3.4-.5-.1-.9-1-.9s-1.3-.5-1-1c.3-.6.1-1-.4-1-.6 0-1.1-.7-1.1-1.5 0-1.5-.7-2.6-4-6.2-.8-.9-1.4-1.8-1.2-2 .5-.7.1-2.3-1-3.5-2.7-2.8-6.2-8.3-4.5-6.9 1.5 1.2 1.7 1.2 1.1-.3-.3-.9-1.2-1.6-2-1.6s-1.4-.7-1.4-1.5-.5-1.5-1.1-1.5c-.6 0-.9-.7-.5-1.5.3-.8.1-1.5-.4-1.5s-1.2-.9-1.5-2c-.4-1.1-1.1-1.7-1.7-1.4-.6.4-.8.2-.4-.4.3-.6.2-1.3-.4-1.7-.6-.4-.8-1.1-.5-1.6.4-.5.1-.9-.5-.9s-.8-.5-.5-1c.3-.6-.1-1-.9-1-.9 0-1.5-.3-1.5-.8.3-1.6-.2-3.1-1.3-4.4-1.8-1.9-5-7.8-4.3-7.8.4 0 0-.7-.9-1.5-.8-.8-1.9-1.5-2.4-1.5-.6 0-.8-.9-.5-2 .4-1.4 0-2-1-2s-1.5-.7-1.2-1.8c.2-1.1-.7-2.6-2.1-3.7-1.3-.9-2.1-2.1-1.8-2.6.3-.5-.4-1.9-1.5-3.1-1.2-1.2-2.1-2.8-2.1-3.5 0-.7-.5-1.3-1.1-1.3-.5 0-.8-.4-.5-.9.3-.4-.3-1.9-1.4-3.1-1.1-1.2-2.2-3.1-2.5-4.1-.4-1.1-1.1-1.9-1.6-1.9-.6 0-.7-.5-.4-1 .3-.6.1-1-.5-1s-.8-.5-.5-1c.3-.6.1-1-.5-1s-.8-.5-.5-1c.3-.6.2-1-.3-1-.4 0-1.9-2-3.1-4.5-1.2-2.4-2.6-4.7-3.2-5-.5-.4-.7-1.1-.4-1.6.4-.5.2-.9-.3-.9s-1.5-1.4-2.2-3c-.7-1.7-1.8-3-2.5-3-.8 0-1.1-.8-.8-2 .4-1.4 0-2-1.1-2-1 0-1.4-.5-1.1-1 .3-.6.1-1-.5-1s-.9-.4-.6-.9c.3-.4-.3-1.9-1.4-3.1-1.1-1.2-1.7-2.6-1.5-3 .3-.4-.2-1.1-1.1-1.4-.9-.3-1.4-1.2-1.2-1.8.5-1.5-1.5-3.8-3.4-3.8-1 0-1-.2-.1-.8.7-.4.9-1.3.4-2.1s-1.4-1-2.1-.6c-.9.5-1.1.4-.6-.4.9-1.4-1.7-4.1-3.8-4.1-.9 0-1.6-.4-1.6-.9 0-.6-2.9-.9-6.4-.9-4.1.1-6.4.5-6.3 1.2.1.6-.6 1-1.6.8-1-.2-1.6.3-1.5 1 .2.7-.2 1.2-.9 1.1-.8-.2-1 .4-.6 1.4.4 1.1.3 1.4-.5.9-.7-.4-1.2-.3-1.2.2s-.9 1.9-2 3.2c-1.2 1.3-1.8 3-1.5 3.7.2.8.1 1.2-.3.9-.5-.3-1.5.4-2.2 1.5-.8 1-2 1.9-2.8 1.9-.7 0-1 .4-.7 1 .3.5.2 1-.4 1-.5 0-1.2.8-1.6 1.9-.5 1.6-1.6 3.2-5.5 7.8-.6.7-.8 1.3-.4 1.3.3 0-.4.9-1.7 2-1.3 1-2 1.9-1.5 2 .5 0-.1.9-1.4 2-1.3 1.1-2 2-1.6 2 .7 0-.4 1.5-4.2 5.5-1.3 1.4-2 2.5-1.7 2.5.6 0-.4 1.3-3.3 4.5-.7.8-1 1.5-.6 1.5s-.3.8-1.4 1.9c-1.2 1-1.9 2.1-1.5 2.5.3.3.1.6-.6.6s-.9.4-.6 1c.3.5-.1 1-1 1s-2.1 1.3-2.6 3c-.6 1.6-1.5 3-2.1 3-.5 0-.6.4-.3 1 .3.5-.1 1-.9 1-.9 0-1.6.6-1.6 1.3 0 .7-.9 2.3-2 3.5-1.2 1.2-1.8 2.2-1.5 2.2.6 0-.7 1.7-4.3 5.5-1.3 1.4-2 2.5-1.6 2.5.3 0-.8 1.3-2.6 3-1.8 1.6-2.7 3-2.1 3 .6 0 1.1.5 1.1 1.2 0 .6-.3.8-.6.5-.9-.8-5.4 4.3-5.4 6 0 .7-.7 1.3-1.6 1.3-.8 0-1.3.4-.9.9.3.5-.6 2.1-2 3.5s-2.3 2.6-2 2.6c.4 0 0 .7-.9 1.5-1.7 1.7-4.6 2-4.6.5 0-.6-.7-1-1.5-1s-1.5-.3-1.5-.8c0-1.7-22.4-23.2-24.2-23.2-.6 0-.9-.3-.6-.6.4-.3-2.4-3.5-6.2-7.2-3.8-3.8-8-9.1-9.5-12.1s-3.3-6.1-4.1-6.9c-.8-.7-1.4-1.8-1.4-2.3 0-.5-.5-.9-1-.9-1.4 0-7.4-6.1-9-9-3.3-6.2-17.3-19.6-23.2-22.3-1.6-.6-2.8-1.5-2.8-1.9 0-.5-1.3-.8-2.9-.8-1.7 0-3.3-.5-3.6-1-.3-.6-2.8-1-5.5-1s-5.2.4-5.5 1c-.3.5-1.6 1-2.8 1-3.3 0-11.3 8.8-12.8 14.1-1.9 6.9-1.4 13.4 1.5 19 8.6 16.3 8 14.6 6.8 20-3.3 14-.2 21.6 11.5 28.5 3.1 1.8 5.7 4.9 9.3 10.7 2.8 4.5 7.4 11.7 10.1 16l5 7.9-2.5 3.3c-1.4 1.8-7.3 7.8-13.1 13.2-5.8 5.3-11.2 11.2-12 12.9-2.2 4.6-1.9 10.3.8 14.6 2.3 3.7 4 5.7 20.9 23.7 5.4 5.8 9.5 10.7 9.1 11-.5.3-1.9 2.8-3.2 5.6-1.3 2.7-3.1 5.8-3.9 6.7-.8 1-1.1 1.8-.6 1.8.5 0 .5.4-.1.8-1.2.9-5.8 9.8-5.5 10.8.1.4-.2 1-.7 1.3-1.6 1.1-12.7 21.1-11.8 21.1.6 0-.4 1.3-3.3 4.5-.7.8-1 1.5-.5 1.5.4 0 .3.4-.2.8-.6.4-1.7 2-2.5 3.7-.8 1.6-2.9 5.6-4.7 8.7-1.8 3.2-2.9 5.8-2.5 5.8.4 0-.1.5-1.1 1.1-.9.6-1.5 1.4-1.2 2 .4.5.3.9-.2.9-.4 0-1.4 1.5-2.2 3.2-.7 1.8-1.9 4.2-2.6 5.3-.7 1.1-1.3 2.4-1.4 3-.1.5-.9 1.8-1.8 2.7-.8.9-1.2 2.2-.8 2.7.3.6-.1 1.1-.9 1.1s-1.8.5-2.2 1.2c-.5.7-.3.8.7.3.9-.5.8-.2-.3 1.1-.9 1-1.8 2.6-2 3.4-.6 2.6-3.6 5.3-5.3 4.7-.8-.4-2-1.8-2.5-3.2-.6-1.5-1.5-2.3-2.1-1.9-.8.4-.9 0-.4-1.5s.2-2.1-1-2.1c-.9 0-1.3-.5-1-1 .3-.6-.1-1-1-1s-1.3-.5-1-1c.5-.9-1.5-1.5-3.7-1.1-.5 0-.8-.4-.8-.9 0-.6-2-1-4.5-1s-4.5.5-4.5 1.1c0 .5-.4.7-1 .4-.5-.3-1-.2-1 .4 0 .5-.9.8-2 .6-1.1-.2-1.9-.1-1.7.3.3 1.2-2.9 5.2-3.7 4.5-.4-.4-.4 0-.1.9.3.8-.1 2.2-1 3.1-.9 1-1.1 1.8-.5 2.2.5.3 1 1.2 1 1.8 0 .8-.3.8-.9-.1-.7-1.1-.9-1.1-1.4.1-.3.8-.1 1.9.5 2.5.7.7.3 1.4-1.2 2.2-1.8 1-2 1.4-.9 2.1 1.1.7 1.1.9-.3.9-1.1 0-1.5.5-1.2 1.5.4 1 0 1.5-1.1 1.5-.9 0-1.3.5-1 1 .3.6-.1 1.7-1 2.6-1.1 1.2-1.3 2-.6 2.7.8.8.6 1.6-.6 2.9-.9 1-1.3 1.8-.9 1.8s-.1 1.3-1.1 3c-.9 1.6-2.1 3-2.5 3-.4 0-.8.5-.8 1.1 0 .5.6.7 1.3.4.6-.4.1.3-1.3 1.5-1.4 1.2-1.8 1.8-1 1.4 1.3-.7 1.3-.5.1.9-.7.9-1.1 2.4-.7 3.2.4 1.2.2 1.3-1.3.6-1.3-.7-1.8-.6-1.8.4 0 .8.5 1.2 1.1.9.6-.3.2.2-.8 1-1.4 1.1-1.5 1.6-.6 1.6s.7.5-.6 1.5c-1 .8-1.5 1.5-1.1 1.5.5 0-.2 1.7-1.4 3.7-1.3 2-1.7 3.3-1 2.9 1-.7 1-.4 0 1.2-.7 1.2-1.8 1.8-2.4 1.4-.5-.3-.3.3.5 1.3 1.4 1.7 1.3 1.8-.4 1.2-1.7-.7-1.7-.6-.5 1 .9 1.1 1 1.4.2.9-.8-.4-1.3-.1-1.3.9s-.5 1.3-1.2.9c-1-.6-1-.5 0 .8 1 1.2.9 1.8-.3 2.8-.8.7-1.5 1.9-1.5 2.6 0 .8-.5 1.4-1.2 1.4-.6 0-.8.3-.5.6 1 1.1-1.3 4.5-2.6 3.9-.7-.3-.5 0 .4.6 1.5 1.1 1.4 1.4-.3 3.1-1 1-2.4 1.8-3.1 1.8-.8 0-.7.3.3 1 1.2.7 1.2 1.2-.4 2.9-1.1 1.2-1.6 2.1-1.2 2.1.3 0 0 1.3-.8 2.9-.9 1.6-1.2 3.2-.8 3.6.4.3 0 1.2-.8 1.8-.8.7-2.1 2-2.9 3-1.2 1.6-1.2 1.7.5 1.1 1.5-.4 1.3-.1-.6 1.6-1.4 1.2-1.8 1.8-1.1 1.4.9-.5.6.5-.7 2.3-1.6 2.3-1.9 3.3-1 3.6.9.4.7.6-.3.6-.9.1-2.3.9-3 1.8-.8 1-.9 1.4-.2 1 .6-.4 1.4-.3 1.8.3.3.5-.1 1-.9 1s-1.8.5-2.2 1.2c-.5.7-.3.8.7.3 1.1-.7 1.2-.6.3.6-1.8 2.4-2.6 5.1-1.1 4.3.8-.5.8-.2-.2.9-.7.9-1.7 1.4-2.2 1.1-.5-.3-.8.5-.6 1.8.1 1.2-.3 2.3-1 2.3-.6 0-1.5.4-2 .9s-.3.6.5.2c1.5-.9 1.6 1 .1 1.9-.6.4-.8 1.3-.5 2.1.3.9-.1 1.4-1.2 1.4-1 0-1.3.3-.6.8 1.8 1.2 1.3 4.1-.7 3.7-1.7-.4-2 1-.5 3.3.5.8.3 1.1-.5 1-.7-.2-1.4.4-1.4 1.2 0 .8-.6 1.4-1.3 1.3-.6-.2-.9.4-.6 1.2.4.9 0 1.5-.7 1.5-1.1 0-1.1.3.1 1 1.3.8 1.2 1-.4 1-1.1 0-1.6.3-1.3.7.4.3.1 1.3-.6 2.1-1 1.3-.9 1.4.3.8.8-.4.4.2-1 1.4s-2 1.9-1.4 1.6c.6-.3 1.1.1 1.1.8 0 .8-.6 1.2-1.3.9-.7-.2-1.1.3-1.1 1.4.1 1-.3 1.7-.9 1.6-.8-.1-1 .6-.6 1.9.4 1.6.2 1.9-.9 1.3-1.2-.8-1.2-.6 0 .8 1.1 1.4 1.1 1.8-.3 2.3-.9.3-1.3 1-1 1.5.3.5-.1.9-.8.9-.9 0-.9.3.2 1s1.1 1 .2 1c-.7 0-1 .5-.7 1 .4.6.3.9-.2.8-.4-.2-.9.1-1 .6-.1.5-.7 1.3-1.5 1.7-1 .7-1 .9.2.9 1.2.1 1.1.3-.3 1.1-.9.6-1.5 1.4-1.2 2 .4.5.1.9-.4.9-.6 0-1 .6-.8 1.2.1.7-.3 1.2-.9 1.1-.7-.1-1 .6-.7 1.6.3 1-.1 2.2-.8 2.6-.8.5-1 .4-.5-.3 1.1-1.8 0-1.4-1.5.5-1.1 1.4-1.1 1.5-.1.9s1.3-.3 1 1c-.2 1.1-1 1.8-1.7 1.6-.9-.2-.9.3-.2 1.7.8 1.5.7 1.8-.6 1.7-.9 0-1.8.6-2 1.4-.4 1.3-.3 1.3.6 0 .6-.8 1.1-1 1.1-.4s-.9 1.9-1.9 2.8c-1.1 1-1.7 2.4-1.5 3.1.3.7-.4 1.6-1.6 2-1.8.6-1.9.9-.8 2.3 1.1 1.3 1 1.5-.4.9-1.2-.4-1.8-.2-1.8.8 0 .8-.5 1.5-1.1 1.5-.5 0-.8-.4-.5-.8.3-.5-.1-.9-.9-.9-1.1 0-1 .5.3 2.6.9 1.4 1.2 2.3.8 1.9-1.2-1-3.4 1.5-2.8 3.2.5 1.3.4 1.3-1.3 0-1.7-1.4-1.8-1.4-.5.9 1.1 2.1 1 2.3-.3 1.8-1.2-.4-1.4-.2-1 1 .4 1.1.2 1.4-.5.9-.7-.4-1.2-.2-1.2.3 0 .6.6 1.1 1.3 1.2.7 0 .6.3-.3.6-2.1.9-4 3-3.3 3.7.3.3.1 1.2-.5 1.9-.7.8-.8 1.8-.4 2.2.4.5.1.5-.6.1-.8-.5-1.6.3-2.3 2.1-.5 1.5-1.6 3.1-2.2 3.5-.7.4-1.2 1.1-1.2 1.6 0 .6-1.2 2.2-2.7 3.7-1.6 1.5-2.8 3.3-2.8 3.9 0 .6.4.4 1-.4.5-.8 1.1-1.2 1.4-.9.3.3-.6 1.6-2.1 3-1.4 1.3-2.3 1.8-1.8 1 .5-1 .4-1.2-.3-.7-.9.5-.9 1.3 0 2.9 1 1.9.9 2.1-.4.9-1.3-1-1.8-1-2.4-.1-.4.8-.3.9.4.5s1.2-.2 1.2.3c0 .6-.4 1.1-.9 1.1s-1.1.9-1.4 2.1c-.3 1.2-1 1.8-1.5 1.5-.6-.4-.8.3-.4 1.6.3 1.4.2 1.9-.6 1.4-.7-.4-1.2-.2-1.2.3 0 .6-.6 1.1-1.4 1.1-.8 0-1.8.9-2.1 2-.4 1.1-1 1.8-1.5 1.5-.5-.3-1 0-1.2.7-.6 1.8-13.6-24.9-19.6-40.2-35.4-89.5-40.4-187.9-14.2-279.2 8.4-29.3 16.2-49.5 29.6-76.1 13.5-27 32.4-56.9 47.6-75.2.9-1.1 5.3-6.5 9.8-12 11.1-13.4 40.9-42.9 54.5-54 6.1-4.9 11.2-9.2 11.5-9.5.3-.3 2.1-1.7 4-3s3.7-2.7 4-3c.5-.6 3.1-2.5 20.2-14.3 3.7-2.6 7.1-4.7 7.4-4.7.3 0 3.2-1.8 6.4-4s6.4-4 6.9-4c.6 0 1.1-.3 1.1-.8 0-.7 4.8-3.2 6.2-3.2.5 0 1.8-.9 3-2s3-2 4-2 1.8-.5 1.8-1c0-.6.9-1 2.1-1 1.1 0 1.7-.5 1.4-1-.3-.6.3-1 1.4-1 1.2 0 2.1-.5 2.1-1 0-.6 1.1-1 2.5-1s2.5-.5 2.5-1c0-.6.7-1 1.5-1s1.5-.5 1.5-1c0-.6 1.1-1 2.5-1s2.5-.3 2.5-.8c0-.8 4.9-3.2 6.7-3.2.7 0 1.3-.5 1.3-1 0-.6 1.1-1 2.5-1s2.5-.5 2.5-1c0-.6.7-1 1.5-1s2.3-.4 3.3-.9c4.4-2.2 13.6-5.6 14.5-5.3.4.1.7-.3.7-.8 0-.6 1.1-1 2.4-1 1.4 0 2.8-.5 3.1-1 .3-.6 1.7-1 3-1s2.7-.5 3-1c.3-.6 1.5-1 2.6-1 1 0 1.9-.5 1.9-1 0-.6 1.3-1 2.8-1 1.5 0 3.2-.4 3.8-1 .5-.5 2.4-1 4.2-1.2 1.7-.1 3.2-.6 3.2-1s1.4-.8 3-.8c1.7 0 3-.5 3-1 0-.6 1.4-1 3-1 1.7 0 3-.5 3-1.3s.4-.7 1 .3 1 1.1 1 .2c0-.7 1.4-1.2 3.4-1.2 1.9 0 3.8-.5 4.1-1 .3-.6 2.4-1 4.6-1 2.1 0 3.9-.4 3.9-.8 0-.5 2.1-.9 4.8-1.1 2.6-.1 4.9-.6 5-1.2.2-.5 2.4-.9 4.8-.9s4.4-.4 4.4-.8c0-.5 2.4-.9 5.2-1.1 2.9-.1 5.6-.8 6-1.4.6-.9.8-.9.8 0 0 1.2 1.7 1.2 3.5.1.6-.3 3.7-.7 7-.9 3.3-.1 6.2-.6 6.5-1 .3-.4 5.4-.9 11.3-1 6-.2 11-.6 11.3-1.1.6-.9 46.3-.4 63.4.6zM474.8 325c5.4 2.4 14.3 10.8 19.3 18.2 2.2 3.1 5.9 7.4 8.4 9.4 3 2.6 5 5.3 6.2 8.7 1.5 4.3 4.8 7.9 24.7 27.1 19.8 19.1 24.7 24.5 36.2 39.7 32.9 43.5 40 54.2 41 62 .6 4.7.8 4.9 3.9 4.9 2.7 0 4 .8 6.4 3.9 1.8 2.2 3.7 5.7 4.5 7.7 2 6 10 9.8 28.1 13.5 8.1 1.6 15.4 3.3 16.4 3.8.9.5 4.5 1.2 8.1 1.6 3.6.3 10.1 1.5 14.6 2.6 5.4 1.2 13.6 2 25.5 2.4 9.5.4 20.4 1.1 24.1 1.6 3.7.6 14.9 1.2 25 1.3 15.5.3 19.3.7 24.9 2.5 3.7 1.1 7.3 2.9 8 3.8 3.1 3.7 13.7 10.5 18.8 12 3 .8 7.7 2.6 10.5 3.9 7.1 3.3 8.2 3.1 9-1.4.7-4.4 5.1-14.9 8.9-21.4 1.6-2.6 3.3-6.4 3.9-8.5.6-2.1 2.2-5.2 3.7-6.8 1.4-1.7 3.7-4.7 5-6.6 5.6-8.3 15.5-11.1 31.2-9.2 10.8 1.4 17.4 4.3 23.8 10.4 6.2 6 8.6 11.7 8.5 20.9 0 9.5-2.4 17.5-7 23.6-2 2.6-4.1 6.3-4.6 8.1-1.2 4.5-5.6 7.1-13.3 7.9-5.6.6-6.3 1-10.7 5.6-6.1 6.4-7.4 10.2-5.7 16.9 1.2 4.7 1.2 5.3-1 9.5-1.9 3.6-2.3 5.3-1.7 9.1.7 5.4 7.4 18.3 15.2 29.4 5.7 8.1 7.3 13 7.4 22 0 4.6-.8 7.1-4.2 14l-4.1 8.4 1.1 10.5c.6 5.8.8 11.8.5 13.5-1.2 6.1-23 24.1-32.5 27-10.6 3.1-15.5 1.8-24.6-6.9-6.6-6.3-9-10.8-9.9-18.6-.3-3.3-1.2-6.5-1.8-7-.9-.8-3.6-.5-9.2.9-4.3 1.1-11.4 2.3-15.8 2.6-4.4.4-13.2 1.3-19.5 2.1-15 1.9-49.2 3.8-55.2 3.1-8.6-1.1-15.5-6-19-13.6-1.7-3.9-2-7-2.4-26.5-.4-19-.2-22.6 1.2-25.8 1.6-3.5 1.6-3.9 0-6.3-.9-1.4-2.1-2.5-2.6-2.5-1.1 0-1.3-20.7-.3-37.8l.6-11.2h2.9c5.7 0 6.7-1.3 6.1-7.7-.3-3.2-1.1-6.3-1.7-7-.8-.8-3.5-.9-10.4-.2-6.2.7-10.5.6-13-.1-7.3-2-8-1.4-3.7 3 2.2 2.2 5.6 5.2 7.6 6.5l3.6 2.6-3 11.2c-2.6 9.7-3 13-3.1 25.2-.1 12.1-.3 14.2-1.8 15.3-1 .7-1.8 2.2-1.8 3.2 0 1.1-1.1 6.3-2.4 11.6-2.1 8.3-3.7 11.5-11.1 23.6-4.8 7.7-8.5 14.1-8.3 14.3.6.6 9.9 4.5 10.7 4.5.4 0 1.5-1.6 2.5-3.6.9-2 1.8-3.5 2-3.3.5.5 1.5 17.9 1.6 26v6.6l7 1c8.4 1.1 8 2.9 4.5-19.3-2.7-17.1-3.1-26.6-1.4-31.1 1.4-3.8 2.3-1.9 3.8 7.9.6 4.2 2 10.1 3.1 13 1.1 2.9 2 5.9 2 6.7 0 3 6.6 14.9 11.6 20.8 5.9 6.9 7.1 10.8 5.5 17-1.4 5.1-3.1 6.6-11.6 10-7 2.8-7 2.9-7.7 7.3-.3 2.5-.7 8-.7 12.4-.1 4.5-.8 9.8-1.7 12.5-1.6 4.5-1.6 4.8 2 19.4 4.3 17.7 4.5 22.2 1.1 30.6-3.8 9.2-3.5 13.5 1.3 22.3 4.3 8 5.7 14.5 7.2 33.8.8 11.3 5.1 25.7 14.5 49.6 2.5 6.2 4.5 11.5 4.5 11.8 0 .3-2.1.8-4.6 1.2-2.5.3-4.8 1.2-5.1 2-.9 2.3 3.7 17.8 6.5 21.8 1.5 2.2 4.7 6.1 7 8.8 4.1 4.5 5.2 5 16.7 8.7 6.9 2.2 14.1 4.3 16.2 4.7 5.6 1 15.4 5.7 18.6 8.9 1.5 1.5 2.7 3.9 2.7 5.2 0 2.4-.2 2.5-5.1 1.8-7.5-1-38.6-1.8-61.6-1.5-11 .1-21-.1-22.1-.4-3.8-1.2-5.5-7.1-5.4-18.1.1-11.1-.5-14-5.5-27.1l-3.5-9.1-6.1-.7c-13.6-1.4-33.2-1.8-35.9-.7-2.5.9-2.8.8-3.2-1.2-.3-1.2-1.6-7.8-3.1-14.7-1.5-6.9-3.7-21.1-5.1-31.5-1.3-10.5-3.3-23.3-4.3-28.5-3-14.6-3.2-16.9-3.1-41 0-18.4-.5-25.8-2.5-40.5-2.8-20.9-4.1-33.2-5-46.5-.4-5.2-1.5-16.5-2.6-25-2.1-16-2.5-27.9-1.4-46.7.8-13.6-.8-30.1-4.1-43.4-2.2-8.9-3.6-12.1-10.5-23.5-4.3-7.2-12-18-16.9-24-9.3-11.1-16.2-22-22.3-35.4-3.7-8.1-14.7-27.9-17.5-31.5-1-1.2-4.7-4.6-8.2-7.5-10.1-8.3-50-49.5-50-51.6 0-.4.9-1.4 2-2.4 10.3-9 30-30 30-32 0-.6-3.6-6.8-8-13.8-21.1-33.8-20.2-32.5-25.3-35.3-7.9-4.3-8.2-4.7-6.3-11.2.9-3 1.6-6.8 1.6-8.4 0-4.5-3.5-13.7-7.2-19-4.1-6-4.5-11.5-.9-14.4 2.9-2.4 4.5-2.4 9.9.1z"/><path d="M371 672.1c0 .5.5.7 1 .4.6-.3 1-.8 1-1.1 0-.2-.4-.4-1-.4-.5 0-1 .5-1 1.1zM307.5 806c-.3.5-.1 1 .4 1 .6 0 1.1-.5 1.1-1 0-.6-.2-1-.4-1-.3 0-.8.4-1.1 1zm-36 54c-.3.5-.1 1 .4 1 .6 0 1.1-.5 1.1-1 0-.6-.2-1-.4-1-.3 0-.8.4-1.1 1zm-138-115.6c-9 2.8-14 7.1-17.1 14.5-.8 2-2.2 8.8-3 15.1-1.8 14.5-2.8 17.7-6.4 19.5-4 2-6.2 1.9-9.5-.7-5.7-4.5-7.2-15.1-3.5-25.6 1.2-3.1 2.2-6.1 2.3-6.6.1-.5-3.5-1.9-8-3.1-14.2-4-13.9-4-15.1-.8-5.5 13.6-4.5 33 2.4 46.5 7.7 15.2 22.9 22 38.8 17.4 15-4.4 20.6-12.8 22.6-33.9.5-5.3 1.6-11.1 2.5-12.7 3-5.8 10.5-5.1 13.8 1.3 2.3 4.5 2.5 13 .3 18.1l-1.5 3.6 3.7.9c2 .6 4.9 1.3 6.5 1.7 1.5.3 2.7 1 2.7 1.6 0 .5.4.6 1 .3.5-.3 2.6-.2 4.5.4 3.4.9 3.7.8 4.7-1.7.6-1.5 1.2-7.5 1.4-13.3.6-16.8-3.5-28.3-13.2-36.8-7.5-6.6-19.8-8.9-29.9-5.7zm1020 5.4c-2.4 3.8-5.2 8.9-6.1 11.3-.9 2.4-2.2 5-2.7 5.7-.5.7-1.2 5.4-1.5 10.6-.3 7.1-.1 10.5 1.2 14.4 2.3 6.8 9.2 14.4 16.4 17.9 4.9 2.3 7 2.8 14.3 2.8 12.3 0 15.9-2.4 26.1-17.5 4.2-6.3 8.7-12.3 9.9-13.3 5.6-4.5 13.9.5 13.9 8.5 0 6.1-4 14-10.1 19.8l-5.2 5 4.9 4.3c9.3 8.3 12.2 10.7 12.8 10.7 1.8 0 10-10.3 13.5-17 5.3-10.1 7.1-17.7 6.8-28.2-.2-7.2-.7-9.4-3.5-15.1-4.4-8.9-10.4-13.6-20.7-16.3-16-4.3-27.5 1.8-38.3 20.3-6.6 11.2-11.7 13.9-16.7 8.8-1.9-1.8-2.5-3.5-2.5-7 0-5.5 1.9-9.7 6.8-14.8 3.1-3.2 3.4-3.9 2.2-5-7.4-6.7-14.9-12.7-15.9-12.7-.6 0-3.1 3.1-5.6 6.8zM182.3 822c-1.2.5-5.5 2.3-9.6 4l-7.5 3.1 4 9.6c2.2 5.2 3.6 9.9 3.1 10.3-.6.6-59.4 25.9-69.1 29.7-1.7.7-1.1 3.3 2.7 11.6 1.5 3.4 3.3 7.7 4 9.4.8 1.8 1.8 3.3 2.3 3.3.7 0 69-28.5 70.9-29.6.3-.2 2.5 4.1 4.8 9.5l4.2 9.9 10-4.1c5.4-2.2 9.9-4.5 9.9-5 0-.8-11.5-28.8-14-34.2-.6-1.1-3.4-7.8-6.4-15-3-7.1-5.8-13.1-6.3-13.2-.4-.1-1.8.2-3 .7zm941.3 24.8l-5.7 11.7 28.8 14.1c15.8 7.7 30.3 15.3 32.1 16.8 7.7 6.6 8.2 14.1 1.6 23.8-3.5 5-8.4 7.2-14.1 6.3-5.3-.8-7.2-1.6-31.8-13.5-28.6-13.8-31.6-15.2-31.9-14.9-.2.2-2.9 5.5-6 11.6L1091 914l8.7 4.4c23.9 11.9 51.9 24.8 57.1 26.1 9 2.4 18.2 2.1 24.5-.8 10.3-4.8 19.6-16.2 24.5-29.8 4.1-11.4 4.9-19 2.9-26-3.7-12.6-11.9-20.1-33.6-30.6-7.5-3.6-20.1-9.7-28.1-13.5-8-3.9-15.2-7.4-16.1-7.9-1.3-.6-2.6 1.4-7.3 10.9zM209 934.1c-72.4 17.4-75 18.1-74.3 19.3 2.8 4.8 14.6 21.6 15.1 21.6.4 0 4-.9 8-2 3.9-1.1 7.8-2 8.5-2 1.9 0 22 29.7 21.1 31.3-.4.6-2.7 3.8-5.1 6.9-4.8 6.3-5.1 7.5-2.5 10.9 1.1 1.3 4.2 5.9 7.1 10.1 2.9 4.3 5.6 7.8 6.1 7.8.4 0 5.8-7.3 12.1-16.3 6.2-8.9 19.6-28.1 29.7-42.6 10.1-14.5 18.6-27 18.9-27.7.4-1.1-13.7-22.7-15.5-23.7-.4-.2-13.5 2.7-29.2 6.4zm10.8 23.8c-.1.6-4.5 6.7-9.6 13.6l-9.3 12.7-6.5-9.3c-7.5-10.9-8.5-9.5 9.7-14.4 13.2-3.6 16.3-4.1 15.7-2.6zm855.3-9.8c-5 1.5-10.9 5.5-15.7 10.7-4.9 5.3-28.4 35.4-28.4 36.3 0 .5 63.6 50.5 77.6 61.1.8.6 3.7-2.4 8.8-8.8 4.2-5.4 7.6-10.2 7.6-10.8-.1-.6-4.7-4.6-10.3-8.9-5.6-4.3-11.3-8.7-12.6-9.8l-2.4-2 6-7.7c3.3-4.2 6.9-9.5 8.1-11.7 4-7.6 5.2-16.3 3.2-23.6-2.2-8-12.7-18.6-22.6-23-5.4-2.5-14.4-3.3-19.3-1.8zm11.8 29c6.5 4.8 6.6 12 .1 20.5l-4.1 5.4-6.7-5.2c-3.7-2.9-8-6.3-9.5-7.4-1.5-1.2-2.7-2.6-2.7-3.2 0-1.5 9.1-11.3 11.4-12.3 3.1-1.3 8.1-.3 11.5 2.2zm-826.4 57c-17 18.7-32 35.3-33.3 36.9l-2.3 2.8 4.3 4c2.4 2.2 6.5 6 9.3 8.5 2.7 2.5 5.5 4.2 6.1 3.9.6-.4 5.5-5.6 10.9-11.5s10.7-11.3 11.8-11.9c1.9-1 1.9-.8 1.3 3.8-.4 2.7-1.2 7.4-1.7 10.4s-1.8 10.3-2.8 16.3l-1.8 10.7 9.1 8.2c5 4.5 10.2 9.3 11.5 10.5 1.3 1.3 2.7 2.3 3.1 2.3.4 0 1.1-4.6 1.5-10.1.4-5.6.8-11.1 1-12.3.2-1.1.6-6.2 1-11.1.6-8.8 1.5-15.8 1.9-16.2.2-.2 2.4.4 5 1.3 3.1 1.1 6.9 1.5 11.1 1.2 5.2-.3 7.2-1 11.9-4.1 9.9-6.6 16.7-20 15.2-30-1.5-9.9-5.7-15.3-26.1-33.8-3.3-3-6.2-5.6-6.5-5.9-2.7-2.7-9.2-8-9.8-8-.4 0-14.6 15.4-31.7 34.1zm46.2 7.3c4.6 8.9-2.5 19-12.2 17.2-3.7-.7-12-6.5-12-8.4 0-.6 3.5-5 7.9-9.7l7.9-8.6 3.4 3.3c1.9 1.8 4.2 4.6 5 6.2zm680.8-4.8c-6.8 5.2-9.9 8.1-9.7 9.2.4 1.9 12.6 42.9 14.3 48 .6 1.9.9 3.6.6 3.8-.4.5-11.9-6.5-37.4-22.7-5.1-3.3-9.5-5.9-9.9-5.9-.6 0-17.5 12.2-20.4 14.7-.2.2.9 3 2.5 6.1 1.6 3.1 6.8 13.1 11.6 22.2 14.1 27.1 23.4 45 27.9 53.8 2.6 5.2 4.7 8.1 5.5 7.8 2.2-.8 19.5-14.1 19.5-14.9 0-.5-4.2-8.6-9.4-18-16.8-30.9-17.9-33-16.5-32.1.8.4 2.5 1.5 3.9 2.5 3.5 2.3 43 26.4 45.6 27.7 1.8.9 2.8.6 6.1-2l4-3-1.5-5.7c-.8-3.1-1.6-6.3-1.7-7.1-.1-.8-.5-2.2-.8-3-2.7-7.2-10.5-39.6-9.7-40.4.6-.6 5.2 3.3 12.7 10.7 6.5 6.4 14.2 13.8 17 16.5 2.9 2.7 5.1 5.2 4.8 5.5-.3.4-.2.5.2.2.3-.3 1.7.4 2.9 1.6l2.2 2.1 3.4-2.4c1.9-1.2 6.4-4.8 10.2-7.8l6.8-5.5-6.4-6c-7.2-6.8-34.4-32.4-45.8-43-4.1-3.9-10.6-10-14.3-13.5-3.8-3.6-7.1-6.6-7.5-6.7-.4-.1-5.2 3.1-10.7 7.3zm-611.2 40.5c-14.1 2.5-27.5 19.3-25.8 32.4.9 6.9 2.8 10.6 10.8 20.5 8.2 10.1 10.2 13.8 9.3 17.4-1.8 7.1-9.9 8.9-17.4 3.8-4.8-3.2-7.8-7-11.2-14.1-1.3-2.8-2.7-5.1-3.1-5.1-.4 0-5.1 2.5-10.3 5.6-10.9 6.3-10.7 5.6-3.4 16.5 10.1 15.3 30.4 26.3 45.2 24.5 14.7-1.7 27.4-15.3 28.4-30.3.4-5.3 0-7.1-2.6-12.6-1.6-3.5-5.4-9.3-8.4-12.8-7.7-9.2-8.8-11-8.8-14.5 0-3.9 3.8-7.4 7.9-7.4 4.5 0 11.8 5.4 14.8 11 1.6 2.7 3.2 5 3.7 5 .9 0 3.9-1.7 13.4-7.7 6.1-3.9 6.1-3.7-1.9-13.3-11.7-14.1-27.1-21.2-40.6-18.9zm510.7 27.8c-2.5 1-5.6 2.3-7 2.9-1.4.6-5.2 2.2-8.5 3.5l-6 2.5-1.7 7.9c-1 4.3-2 9.1-2.3 10.8-.3 1.6-1.1 5.4-1.8 8.3l-1.2 5.4-13.8-9.1-13.7-9.1-14 5.6c-7.7 3.1-14 5.9-14 6.3 0 .3 11.9 8.2 26.4 17.5l26.4 16.8 8.8 21.9c5.4 13.4 9.3 21.9 10.2 21.9.7 0 3.6-.9 6.3-2 2.7-1.1 7.3-2.9 10.2-4.1 2.8-1.2 5.5-2.4 6-2.8.4-.4-2.2-7.9-5.9-16.7-3.6-8.7-6.7-16.4-6.8-16.9-.2-.6-1.2-3.1-2.4-5.7-2.4-5.5-2.8-3 4.9-36.3 3.2-14.3 6.2-27 6.4-28.3.6-2.6-.3-2.7-6.5-.3zm-138.2 45c-6.4 1.4-12 2.9-12.3 3.2-.7.8 19.3 96 20.4 97.1.4.4 12.4-1.7 26.6-4.8 14.3-3 26.7-5.7 27.5-5.8 1.7-.3 1.6-1.6-.7-12.9-.9-4.4-2.2-8.1-2.9-8.4-.6-.2-7.3.9-14.8 2.5-7.4 1.6-13.9 2.6-14.4 2.3-.5-.3-4.4-17-8.7-37.1-4.2-20.1-8-37-8.3-37.6-.5-.7-4.4-.2-12.4 1.5zm-112.8 6.7c-9.3 2.4-17.7 7.2-24.3 13.7-3.4 3.4-6.6 6-7 5.9-.5-.1-.5.3-.2.9.4.6-.2 2.3-1.3 3.9-5.8 7.7-8.7 28.4-5.6 39.8 3.8 14.3 15.2 28.4 27.6 34.2 23 10.8 50 6.7 66.8-10 10.7-10.6 15.2-22.1 15.1-38-.1-24.4-16-44.2-40.6-50.5-7.4-1.9-23.2-1.9-30.5.1zm27.8 26.4c9.6 4.1 16.2 14.5 16.2 25.3 0 19.4-21.4 32.7-39.7 24.7-5.9-2.5-12.4-8.9-14.9-14.7-1.9-4.4-2.1-15.4-.4-19.8 5.9-15.4 23.1-22.3 38.8-15.5zm-125.3-18.6c-6.2 1.8-9.9 5.8-12.1 13.1-1.5 5.4-1.7 5.6-4.4 5-2.6-.6-2.8-.3-3.9 3.9-1.5 6.1-1.5 6.3 1.4 7 1.4.4 2.5 1.2 2.5 1.9 0 .6-1.3 6.5-2.9 13-1.5 6.5-2.5 12-2.1 12.2 1.7 1 14.3 3.6 14.9 3 .3-.4 2-6.1 3.6-12.8 3.3-13.4 2.5-12.5 10.6-11.1 4 .7 4.2.5 5.4-6.7.6-3.5.5-3.7-2.7-4.4-1.8-.4-3.6-.9-4-1-.5-.1-1.5-.3-2.3-.4-1.1-.1-1.2-.6-.5-2.6.5-1.4.7-2.5.4-2.5-.2 0 .3-1.4 1.2-3.1 1.3-2.7 2-3 4.7-2.7 1.8.3 3.9.8 4.8 1.2 1.7.8 3.4-2.3 4.3-7.7.4-2.5 0-3-2.9-4.2-5.2-2.2-10.6-2.6-16-1.1zm-84.1 2.4c-16.9 8-13.5 29.1 6 37.7 14.8 6.5 28.8 4.6 34.9-4.8 2.6-4 3.1-6.2 2.8-12-.3-6.8-7.2-14.4-17-19-8.5-4-20.3-4.8-26.7-1.9zM478 1181c5.2 4.9 3.1 13.8-3.4 14.1-7.1.4-11-1.5-13.1-6.4-3.9-9.3 8.6-15.1 16.5-7.7z"/></svg>